<svg width="250" height="250" viewBox="0 0 250 250" fill="none" xmlns="http://www.w3.org/2000/svg">
<g clip-path="url(#clip0_83_1501)">
<circle cx="125" cy="124.505" r="125" fill="white"/>
<path d="M124.76 225L66.8949 208.936L54 64.3047H195.693L182.784 208.914L124.76 225Z" fill="#264DE4"/>
<path d="M171.733 199.705L182.764 76.1304H124.846V212.704L171.733 199.705Z" fill="#2965F1"/>
<path d="M83.5614 129.772L85.1512 147.51H124.847V129.772H83.5614Z" fill="#EBEBEB"/>
<path d="M80.3668 93.8691L81.9793 111.608H124.847V93.8691H80.3668Z" fill="#EBEBEB"/>
<path d="M124.846 175.841L124.769 175.862L105.013 170.527L103.75 156.38H85.9437L88.4289 184.232L124.765 194.319L124.846 194.297V175.841Z" fill="#EBEBEB"/>
<path d="M87.3464 25H108.831V33.9844H96.3308V42.9688H108.831V51.9531H87.3464V25Z" fill="black"/>
<path d="M113.128 25H134.612V32.8125H122.112V34.375H134.612V52.3438H113.128V44.1406H125.628V42.5781H113.128V25Z" fill="black"/>
<path d="M138.909 25H160.393V32.8125H147.893V34.375H160.393V52.3438H138.909V44.1406H151.409V42.5781H138.909V25Z" fill="black"/>
<path d="M166.018 129.772L169.22 93.8691H124.785V111.608H149.78L148.166 129.772H124.785V147.511H146.628L144.569 170.516L124.785 175.856V194.311L161.15 184.232L161.417 181.235L165.585 134.536L166.018 129.772Z" fill="white"/>
</g>
<defs>
<clipPath id="clip0_83_1501">
<rect width="250" height="250" fill="white"/>
</clipPath>
</defs>
</svg>
