<svg width="250" height="250" viewBox="0 0 250 250" fill="none" xmlns="http://www.w3.org/2000/svg">
<g clip-path="url(#clip0_83_1706)">
<circle cx="125" cy="124.505" r="125" fill="white"/>
<path d="M195.335 64.3047L182.459 208.914L124.581 225L66.8623 208.936L54 64.3047H195.335Z" fill="#E44D26"/>
<path d="M124.667 212.704L171.436 199.705L182.439 76.1304H124.667V212.704Z" fill="#F16529"/>
<path d="M99.6371 111.608H124.667V93.8691H80.3002L80.7237 98.6281L85.0725 147.511H124.667V129.772H101.254L99.6371 111.608Z" fill="#EBEBEB"/>
<path d="M103.625 156.38H85.863L88.3419 184.232L124.586 194.319L124.667 194.297V175.841L124.59 175.862L104.884 170.527L103.625 156.38Z" fill="#EBEBEB"/>
<path d="M67.1499 25H76.1416V33.9062H84.3668V25H93.3589V51.9703H84.3672V42.9391H76.142V51.9703H67.1503L67.1499 25Z" fill="black"/>
<path d="M105.183 33.9438H97.2673V25H122.095V33.9438H114.176V51.9703H105.184L105.183 33.9438Z" fill="black"/>
<path d="M126.036 25H135.411L141.179 34.4766L146.94 25H156.32V51.9703H147.365V38.6023L141.179 48.1918H141.024L134.834 38.6023V51.9703H126.036V25Z" fill="black"/>
<path d="M160.795 25H169.789V43.0555H182.434V51.9703H160.795V25Z" fill="black"/>
<path d="M124.606 147.51H146.394L144.34 170.516L124.606 175.856V194.31L160.879 184.232L161.145 181.235L165.303 134.535L165.735 129.772H124.606V147.51Z" fill="white"/>
<path d="M124.606 111.564V111.608H167.345L167.7 107.621L168.506 98.6281L168.929 93.8691H124.606V111.564Z" fill="white"/>
</g>
<defs>
<clipPath id="clip0_83_1706">
<rect width="250" height="250" fill="white"/>
</clipPath>
</defs>
</svg>
