<svg width="250" height="250" viewBox="0 0 250 250" fill="none" xmlns="http://www.w3.org/2000/svg">
<g clip-path="url(#clip0_83_1303)">
<circle cx="125" cy="125" r="125" fill="white"/>
<path d="M157.995 105H192.766V111.447H178.959V145.254H172.056V111.447H157.995V105ZM100.634 105V111.447H72.7157V121.802H95.203V128.198H72.7157V138.858H100.634V145.254H65.8629V105H100.736H100.634ZM118.046 105H109.01L141.396 145.305H150.482L134.239 125.152L150.482 105.051H141.396L129.721 119.569L118.046 105.051V105ZM127.335 133.782L122.766 128.198L109.01 145.305H118.046L127.335 133.782Z" fill="black"/>
<path d="M66.1168 145.254L33.6294 105H25V145.254H31.9036V113.629L57.3858 145.254H66.1168ZM194.34 145.051C193.833 145.051 193.426 144.848 193.071 144.543C192.716 144.239 192.513 143.731 192.513 143.223C192.513 142.716 192.665 142.31 193.02 141.954C193.376 141.599 193.833 141.447 194.34 141.447C194.848 141.447 195.254 141.599 195.609 141.954C195.906 142.226 196.1 142.592 196.155 142.991C196.211 143.389 196.125 143.795 195.914 144.137C195.755 144.403 195.533 144.626 195.267 144.785C195.001 144.945 194.7 145.036 194.391 145.051H194.34ZM206.117 128.046H209.162V139.873C209.162 140.939 208.959 141.904 208.503 142.665C208.045 143.431 207.375 144.048 206.574 144.442C205.761 144.848 204.797 145.102 203.68 145.102C202.665 145.102 201.802 144.898 200.99 144.594C200.178 144.289 199.569 143.68 199.112 142.97C198.655 142.31 198.401 141.447 198.401 140.431H201.447C201.497 140.838 201.599 141.244 201.802 141.548C202.005 141.853 202.31 142.157 202.614 142.31C202.97 142.513 203.376 142.563 203.832 142.563C204.34 142.563 204.746 142.462 205.051 142.259C205.409 142.045 205.693 141.726 205.863 141.345C206.015 140.939 206.117 140.431 206.117 139.822V128.096V128.046ZM221.802 132.665C221.771 132.327 221.664 132 221.488 131.71C221.312 131.42 221.072 131.174 220.787 130.99C220.132 130.588 219.371 130.393 218.604 130.431C217.944 130.431 217.386 130.533 216.929 130.685C216.472 130.888 216.117 131.193 215.914 131.497C215.683 131.779 215.545 132.126 215.518 132.489C215.491 132.852 215.576 133.215 215.761 133.528C215.914 133.782 216.117 133.985 216.421 134.137L217.335 134.645L218.35 134.898L219.975 135.305C220.635 135.457 221.244 135.66 221.853 135.914C222.435 136.14 222.982 136.448 223.477 136.827C223.967 137.224 224.359 137.728 224.623 138.3C224.887 138.872 225.016 139.497 225 140.127C225 141.142 224.746 142.005 224.239 142.716C223.679 143.509 222.904 144.126 222.005 144.492C221.091 144.898 219.924 145.102 218.553 145.102C217.234 145.102 216.066 144.898 215.102 144.492C214.086 144.086 213.376 143.477 212.817 142.716C212.253 141.875 211.952 140.885 211.954 139.873H215C215.018 140.398 215.198 140.905 215.517 141.323C215.835 141.742 216.275 142.051 216.777 142.208C217.284 142.411 217.893 142.513 218.503 142.513C219.162 142.513 219.772 142.411 220.279 142.208C220.787 142.005 221.193 141.701 221.497 141.345C221.761 140.994 221.904 140.566 221.904 140.127C221.904 139.67 221.802 139.315 221.548 139.01C221.221 138.733 220.864 138.495 220.482 138.299L218.858 137.792L216.929 137.284C215.508 136.929 214.391 136.421 213.579 135.66C213.173 135.298 212.854 134.851 212.643 134.351C212.432 133.85 212.336 133.309 212.36 132.766C212.352 131.847 212.657 130.952 213.223 130.228C213.769 129.442 214.526 128.826 215.406 128.452C216.421 128.046 217.437 127.843 218.655 127.843C219.822 127.843 220.888 128.046 221.802 128.452C222.716 128.858 223.426 129.467 223.985 130.178C224.492 130.888 224.746 131.701 224.746 132.716H221.802V132.665Z" fill="black"/>
</g>
<defs>
<clipPath id="clip0_83_1303">
<rect width="250" height="250" fill="white"/>
</clipPath>
</defs>
</svg>
