<svg width="250" height="250" viewBox="0 0 250 250" fill="none" xmlns="http://www.w3.org/2000/svg">
<g clip-path="url(#clip0_97_348)">
<circle cx="125" cy="125" r="125" fill="white"/>
<path fill-rule="evenodd" clip-rule="evenodd" d="M105.454 30.4375C90.6922 30.4375 78.7257 42.0242 78.7257 56.3171V74.2338H124.986V79.2107H58.1656C43.4041 79.2107 31.4375 90.7974 31.4375 105.09V143.91C31.4375 158.203 43.4041 169.789 58.1656 169.789H73.5857V147.891C73.5857 133.599 85.5523 122.011 100.314 122.011H149.658C162.149 122.011 172.274 112.207 172.274 100.114V56.3171C172.274 42.0242 160.308 30.4375 145.546 30.4375H105.454ZM99.2861 62.2893C104.396 62.2893 108.538 58.2785 108.538 53.331C108.538 48.3835 104.396 44.3727 99.2861 44.3727C94.1758 44.3727 90.0337 48.3835 90.0337 53.331C90.0337 58.2785 94.1758 62.2893 99.2861 62.2893Z" fill="url(#paint0_linear_97_348)"/>
<path fill-rule="evenodd" clip-rule="evenodd" d="M145.545 218.562C160.306 218.562 172.273 206.976 172.273 192.683V174.766H126.013V169.79H192.833C207.595 169.79 219.561 158.203 219.561 143.91V105.09C219.561 90.7973 207.595 79.2107 192.833 79.2107H177.413V101.109C177.413 115.402 165.446 126.989 150.685 126.989H101.341C88.8499 126.989 78.7247 136.793 78.7247 148.886V192.683C78.7247 206.976 90.6915 218.562 105.453 218.562H145.545ZM151.713 186.711C146.603 186.711 142.461 190.721 142.461 195.669C142.461 200.617 146.603 204.627 151.713 204.627C156.823 204.627 160.965 200.617 160.965 195.669C160.965 190.721 156.823 186.711 151.713 186.711Z" fill="url(#paint1_linear_97_348)"/>
</g>
<defs>
<linearGradient id="paint0_linear_97_348" x1="101.856" y1="30.4375" x2="101.856" y2="169.789" gradientUnits="userSpaceOnUse">
<stop stop-color="#327EBD"/>
<stop offset="1" stop-color="#1565A7"/>
</linearGradient>
<linearGradient id="paint1_linear_97_348" x1="149.143" y1="79.2107" x2="149.143" y2="218.562" gradientUnits="userSpaceOnUse">
<stop stop-color="#FFDA4B"/>
<stop offset="1" stop-color="#F9C600"/>
</linearGradient>
<clipPath id="clip0_97_348">
<rect width="250" height="250" fill="white"/>
</clipPath>
</defs>
</svg>
