<svg width="250" height="250" viewBox="0 0 250 250" fill="none" xmlns="http://www.w3.org/2000/svg">
<g clip-path="url(#clip0_83_1305)">
<path d="M0 0H250V250H0V0Z" fill="#222222"/>
<path d="M125.5 141C134.06 141 141 133.613 141 124.5C141 115.387 134.06 108 125.5 108C116.94 108 110 115.387 110 124.5C110 133.613 116.94 141 125.5 141Z" fill="#00D8FF"/>
<path d="M125.503 93C146.667 93 166.331 96.018 181.155 101.086C199.016 107.195 210 116.456 210 124.842C210 133.58 198.36 143.421 179.18 149.732C164.68 154.505 145.594 157 125.503 157C104.901 157 85.398 154.66 70.7307 149.68C52.1764 143.38 41 133.415 41 124.842C41 116.523 51.4886 107.334 69.0998 101.236C83.9808 96.0853 104.129 93 125.503 93Z" stroke="#00D8FF" stroke-width="10" stroke-miterlimit="10"/>
<path d="M97.5657 108.886C108.174 90.484 120.675 74.9111 132.543 64.5832C146.843 52.1374 160.452 47.2636 167.787 51.4942C175.431 55.9025 178.207 70.9891 174.114 90.8552C171.018 105.874 163.636 123.722 153.561 141.193C143.235 159.103 131.409 174.88 119.702 185.119C104.891 198.072 90.565 202.757 83.0676 198.433C75.7897 194.234 73.0083 180.481 76.4956 162.089C79.4443 146.537 86.8477 127.466 97.5657 108.886Z" stroke="#00D8FF" stroke-width="10" stroke-miterlimit="10"/>
<path d="M97.4858 141.131C86.8744 122.731 79.6471 104.111 76.6331 88.6571C73.0039 70.0371 75.5694 55.7973 82.8801 51.5531C90.4984 47.1257 104.911 52.2596 120.033 65.7353C131.469 75.9245 143.206 91.2476 153.281 108.716C163.611 126.625 171.354 144.763 174.363 160.029C178.175 179.35 175.088 194.113 167.615 198.452C160.362 202.665 147.096 198.206 132.944 185.986C120.993 175.661 108.202 159.71 97.4858 141.131Z" stroke="#00D8FF" stroke-width="10" stroke-miterlimit="10"/>
</g>
<defs>
<clipPath id="clip0_83_1305">
<rect width="250" height="250" rx="125" fill="white"/>
</clipPath>
</defs>
</svg>
