<svg width="250" height="250" viewBox="0 0 250 250" fill="none" xmlns="http://www.w3.org/2000/svg">
<g clip-path="url(#clip0_97_345)">
<circle cx="125" cy="125" r="125" fill="white"/>
<path d="M113.104 225.534C94.3644 224.18 75.8432 219.452 64.4843 213.122C58.0143 209.517 53.0851 205.087 51.1508 201.138L50 198.789V125.094V51.3997L50.9107 49.5463C54.9802 41.2647 67.968 33.7988 86.0982 29.3192C92.2526 27.7985 101.137 26.2841 108.385 25.5204C115.787 24.7404 135.405 24.8591 142.788 25.7297C162.41 28.0404 179.108 33.2137 189.398 40.1706C193.366 42.8534 197.438 47.1462 198.817 50.1011L200 52.6346L199.899 126.106L199.798 199.578L198.848 201.511C198.326 202.575 196.749 204.667 195.343 206.16C186.787 215.251 168.434 221.976 144.361 224.842C139.454 225.426 118.138 225.897 113.104 225.534ZM147.637 162.387C147.565 162.199 144.763 159.698 141.412 156.828C138.06 153.959 135.173 151.477 134.997 151.312C134.82 151.147 135.439 150.564 136.373 150.015C137.306 149.467 139.094 147.941 140.347 146.625C144.009 142.776 145.736 138.021 145.736 131.794C145.736 125.663 143.873 120.716 140.141 116.94C136.379 113.133 132.06 111.498 125.77 111.498C116.075 111.498 108.629 117.168 106.252 126.362C105.435 129.524 105.439 135.913 106.261 138.717C108.404 146.031 114.241 151.343 121.506 152.59C123.964 153.012 124.297 153.194 125.973 155.031C126.969 156.122 129.013 158.301 130.515 159.872L133.247 162.729H140.507C144.501 162.729 147.709 162.576 147.637 162.387ZM122.737 142.01C120.989 141.097 120.328 140.388 119.331 138.357C118.562 136.788 118.43 135.896 118.421 132.188C118.413 128.42 118.532 127.606 119.336 125.97C120.651 123.293 122.464 122.026 125.267 121.823C129.17 121.539 131.422 123.459 132.603 128.072C134.05 133.728 132.458 139.742 128.986 141.738C127.164 142.785 124.446 142.903 122.737 142.01ZM90.5542 152.51C98.1667 151.063 102.488 146.625 102.488 140.255C102.488 134.604 99.6981 131.311 91.9875 127.861C87.5736 125.886 85.9748 124.646 85.9748 123.198C85.9748 121.997 87.492 120.682 89.2583 120.351C90.9829 120.028 95.5569 120.825 98.258 121.918L100.522 122.835V117.812V112.788L98.0648 112.242C96.5461 111.904 93.3548 111.701 89.7099 111.712C84.547 111.712 83.5361 111.838 81.5931 112.611C75.9178 114.869 73.2247 118.716 73.2678 124.503C73.3081 129.92 76.1593 133.3 83.2552 136.34C87.4421 138.133 89.1203 139.499 89.1203 141.113C89.1203 144.543 83.4187 144.965 77.3822 141.982C75.729 141.165 74.2437 140.43 74.0815 140.349C73.9194 140.267 73.7867 142.614 73.7867 145.564C73.7867 150.902 73.7924 150.928 74.7567 151.296C78.3882 152.68 86.4144 153.297 90.5542 152.51ZM177.583 147.557V143.025H170.703H163.822V127.459V111.892H157.728H151.634V131.991V152.089H164.609H177.583V147.557ZM135.121 68.1382C147.231 67.2963 156.309 65.7067 164.297 63.0296C172.255 60.3626 176.956 57.1354 178.008 53.6175C178.413 52.2619 178.384 51.7477 177.818 50.2614C175.279 43.598 161.096 38.4785 139.424 36.4028C130.153 35.5147 113.294 35.8026 104.454 36.9994C90.9669 38.826 80.0212 42.2188 75.1543 46.0815C65.3091 53.8958 75.7205 62.4906 99.9325 66.5359C110.431 68.2899 124.032 68.9093 135.121 68.1382Z" fill="#00BCF2"/>
</g>
<defs>
<clipPath id="clip0_97_345">
<rect width="250" height="250" fill="white"/>
</clipPath>
</defs>
</svg>
